<?xml version="1.0" encoding="UTF-8" standalone="no"?>
<!-- Created with Inkscape (http://www.inkscape.org/) -->

<svg
   xmlns:dc="http://purl.org/dc/elements/1.1/"
   xmlns:cc="http://creativecommons.org/ns#"
   xmlns:rdf="http://www.w3.org/1999/02/22-rdf-syntax-ns#"
   xmlns:svg="http://www.w3.org/2000/svg"
   xmlns="http://www.w3.org/2000/svg"
   xmlns:sodipodi="http://sodipodi.sourceforge.net/DTD/sodipodi-0.dtd"
   xmlns:inkscape="http://www.inkscape.org/namespaces/inkscape"
   width="988.81415"
   height="800"
   id="svg3978"
   version="1.1"
   inkscape:version="0.48.4 r9939"
   sodipodi:docname="Новый документ 7">
  <defs
     id="defs3980" />
  <sodipodi:namedview
     id="base"
     pagecolor="#ffffff"
     bordercolor="#666666"
     borderopacity="1.0"
     inkscape:pageopacity="0.0"
     inkscape:pageshadow="2"
     inkscape:zoom="0.35"
     inkscape:cx="445.93729"
     inkscape:cy="841.59234"
     inkscape:document-units="px"
     inkscape:current-layer="layer1"
     showgrid="false"
     fit-margin-top="0"
     fit-margin-left="0"
     fit-margin-right="0"
     fit-margin-bottom="0"
     inkscape:window-width="1920"
     inkscape:window-height="1018"
     inkscape:window-x="-8"
     inkscape:window-y="-8"
     inkscape:window-maximized="1" />
  <metadata
     id="metadata3983">
    <rdf:RDF>
      <cc:Work
         rdf:about="">
        <dc:format>image/svg+xml</dc:format>
        <dc:type
           rdf:resource="http://purl.org/dc/dcmitype/StillImage" />
        <dc:title></dc:title>
      </cc:Work>
    </rdf:RDF>
  </metadata>
  <g
     inkscape:label="Layer 1"
     inkscape:groupmode="layer"
     id="layer1"
     transform="translate(665.223,-573.95453)">
    <g
       id="g3997"
       transform="matrix(0.47528951,0,0,0.47528951,-349.04949,720.92835)">
      <g
         style="fill:#006bff;fill-opacity:1"
         transform="translate(-441.23903,-3784.9496)"
         id="g3961">
        <path
           style="fill:#006bff;fill-opacity:1;stroke:none"
           d="m -117.70277,4494.5463 c -38.8713,0.3504 -72.4404,16.6832 -106.2812,32.125 l 24.3125,30 c 29.4725,-13.197 58.9733,-26.211 92.6249,-24.7813 32.7714,21.2732 54.6942,47.1091 23.0626,95.5 -20.5962,41.0767 -18.4295,78.1993 14.3124,110 14.9303,9.7268 29.4632,17.8182 47.125,39.2813 11.655103,8.7179 18.8334025,5.0623 22.87500254,-7.1563 -2.41470004,-39.6249 2.04989996,-58.5631 7.12499996,-75.7187 7.8633005,-37.8213 6.0216005,-73.0613 -22.1250025,-101.4063 -15.3809,-16.4369 -23.0182,-28.9906 -29.2187,-40.8437 20.0569,11.5257 41.7477025,28.7906 65.625003,53.6874 14.6226,16.6749 29.2951,31.2123 43.1563,46.5 4.5528,17.6211 11.0795,34.3832 -2.4376,55.6563 -23.4736,36.9429 -61.0909005,73.9431 -13.5624,155 14.3416,24.459 23.5834,45.7389 31.4374,71.4063 7.1623,23.4068 18.0546,16.5663 25.687597,-0.7188 20.9163,-47.3657 30.8463,-96.2999 12.1562,-145.6875 -17.0834,-45.1422 -18.425697,-68.5563 -19.312497,-91.7813 23.775597,38.0868 39.868997,84.1744 60.843697,125.4376 4.6925,13.4618 7.6046,27.1338 -0.8124,40.625 -21.7471,34.8564 -31.8821,71.4758 0,110.7187 17.0228,20.9534 26.2456,47.74 35,75.6875 3.7826,12.0763 13.7174,30.555 26.4374,-1.4062 10.0517,-25.2564 7.0413,-53.7841 9.2813,-77.1563 4.8007,-50.0906 -8.1078,-68.6349 -18.0937,-88.6563 9.0001,5.1261 17.838,10.4931 24.5,18.6563 12.3756,15.1645 19.6194,33.5712 28.6874,50.7187 2.9669,15.1891 5.2255,30.012 0.9688,44.9688 -9.7084,34.1131 -16.4918,64.7483 25.25,115.6875 l 29.8125,36.3437 c 18.46,22.5274 21.8964,7.6204 22.2187,-4.5312 0.4998,-18.8273 1.1776,-35.8153 5.5626,-51.5312 6.431,-23.0497 1.6901,-46.6075 -8.9376,-69.0313 12.6269,8.6491 27.4494,19.1448 46.4376,34.5313 13.9022,11.2653 33.1967,13.727 48.5937,22.8437 6.5541,3.8807 12.9079,8.0968 19.1875,12.4063 75.5071,87.478 144.2957,63.7938 202.2188,37.5937 -36.6334,-52.7014 -69.1958,-65.3794 -99.25,-65.3437 -27.5355,0.033 -52.9546,10.7497 -77.4688,11.0937 -17.0473,-7.122 -34.0857,-14.2563 -50.4062,-22.875 -17.3144,-9.1436 -33.8591,-19.9601 -49.1563,-32.1875 7.7891,-1.5734 15.9605,-2.3091 28.4375,5.0312 26.5573,15.6236 54.3635,22.7183 96.4375,16.4376 36.6199,-5.4665 55.3609,-19.8721 75.7187,-21.4376 -42.0897,-38.6822 -82.5661,-63.5113 -119.2812,-63.0624 -20.5963,0.2519 -40.0158,8.4576 -57.875,26.625 -14.5648,14.8161 -35.0739,8.5447 -53.9375,8.5 -9.8844,-9.7544 -19.7048,-19.5739 -30.3437,-28.4688 -8.2099,-6.8639 -24.9919,-13.8353 -30.7188,-22.875 -5.2628,-8.3071 -6.1528,-17.74 -7.5,-27.1875 4.146,1.1431 8.7618,3.2752 14.6562,7.9063 28.519,22.4061 68.2313,43.709 118.5626,24.2812 30.786,-11.8834 63.5126,-9.5014 98.5624,0 -40.976,-49.2679 -86.6616,-77.3236 -139.3124,-77.2188 -19.0441,0.038 -38.9962,3.7717 -59.9688,11.5 -24.8199,9.1461 -37.1506,3.9658 -49.0938,-1 -16.8752,-17.3847 -39.7018,-29.683 -53.75,-47.5624 -14.5353,-18.4996 -25.3132,-35.1369 -34.9062,-53.8438 7.6582,-1.3187 15.7236,0.3703 37.75,25.25 84.132,95.0301 168.3151,56.3257 203.5625,28.5938 -21.2895,-10.5793 -35.3694,-24.7778 -48.5625,-37.875 -36.0594,-35.7978 -73.7794,-56.2265 -112.1562,-37.8438 -15.2211,7.291 -29.4649,5.8426 -41.4063,-4.2812 -12.5135,-10.6089 -23.619,-14.0374 -33.7187,-13.7188 -7.4682,0.2356 -14.3939,2.5419 -20.9376,5.4688 -3.3089,-9.3145 -5.3415,-19.2188 -7.9062,-28.8438 58.553,25.7975 113.5772,21.611 166.125,-3.625 -23.1341,-14.5238 -41.2959,-30.9828 -52.1562,-43.5625 -54.164,-62.7384 -86.5835,-41.9003 -123.5626,-37.875 -27.4154,2.9843 -42.4523,-1.9817 -58.937397,-8.0313 -13.5976,-13.8635 -27.342,-27.6285 -40.3438,-41.9687 -65.935503,-65.247 -116.820903,-85.366 -160.875003,-84.9687 z m 73.375,135.4374 c 2.6071,-0.1702 5.6599,2.1958 8.9375,9.5313 5.8232,13.0327 8.7533,45.4864 5.7187,70 -2.1742,17.5644 -15.9618,9.0667 -19.3124,1.4375 -12.5247,-28.516 -10.4521,-55.448 -2.8438,-72.875 1.5148,-3.4696 4.148,-7.8751 7.5,-8.0938 z m 224.5625,22.7813 c 2.4285,0.04 4.8389,0.3512 7.2187,1.0313 15.8116,4.5174 27.2545,18.4345 40.7188,27.875 7.2526,5.0851 14.2946,10.4806 21.4375,15.7187 -54.408,12.3578 -83.5604,-31.6837 -101.4375,-38.5937 10.6399,-1.3542 21.5388,-6.2059 32.0625,-6.0313 z M 74.766033,4761.1713 c 4.0253,-0.1573 7.9012,2.3433 9.125,9.0624 4.5102,24.7645 10.4683,49.3004 13.5624,74.2813 1.2914,10.4245 -11.1506,19.5161 -19.2812,1.4375 -10.3425,-22.9969 -15.5333,-49.0967 -14.2812,-74.2812 0.2828,-5.6912 5.6994,-10.2978 10.875,-10.5 z m 208.656197,28.7812 c 26.7207,0.391 45.9845,16.9916 73.3125,33.125 -53.4174,11.6526 -73.9471,-5.3418 -97.8437,-29.2812 8.9903,-2.8012 17.0494,-3.9533 24.5312,-3.8438 z m -99.8125,103.9062 c 3.4459,0.057 7.2169,4.2728 8.125,12.0938 2.1051,18.1294 6.0708,36.0622 7.1563,54.2812 0.8,13.4305 -10.9744,15.5927 -15,-1.4374 -4.2464,-17.9631 -7.3352,-36.5636 -6.4376,-55 0.3319,-6.816 3.1158,-9.9883 6.1563,-9.9376 z m 179.0313,1.4063 c 20.2841,-0.091 38.213,5.7272 59.0937,21.4063 -39.7644,6.4985 -77.4042,0.924 -99.2813,-15.7188 14.9915,-3.4564 28.0171,-5.633 40.1876,-5.6875 z m 101.9374,92.125 c 17.0012,-0.4103 32.8133,7.919 55.75,23.5625 -29.2048,12.0283 -59.2369,9.9831 -95,-10 15.439,-8.9042 27.6178,-13.2818 39.25,-13.5625 z m -164.3437,39.75 c 1.8853,-0.01 4.2542,2.4573 7.3437,7.4687 6.1079,9.9068 4.9686,22.6646 4.0626,34.3438 -1.072,13.8155 -3.7388,14.3956 -9.5938,2.0312 -6.588,-13.9126 -8.9532,-21.0347 -6.5625,-34.3437 1.1315,-6.2991 2.6133,-9.4929 4.75,-9.5 z m 248.75,68.4687 c 19.868,-0.053 36.8691,10.3403 56.3437,28.9063 -38.6649,8.5159 -57.7767,0.7508 -85.7187,-22.125 10.7195,-4.549 20.3441,-6.7571 29.375,-6.7813 z"
           id="path3057"
           inkscape:connector-curvature="0" />
        <path
           style="fill:#006bff;fill-opacity:1;stroke:none"
           d="m 780.83867,3475.7195 c -59.3214,72.8647 -100.3873,148.3269 -182.8437,219.1875 -90.073,77.4061 -187.448,156.6764 -287.875,223.25 -51.3041,34.0099 -95.6364,51.8009 -125.25,87.9062 -99.390702,121.1791 -57.9929,208.1232 49.5,256.5626 50.7316,22.8609 135.7376,21.0225 159.5937,60.625 l 46.4688,-34.375 c -23.284,-14.8156 -45.4289,-27.7434 -80.8125,-44.4376 -29.7706,-14.0459 -70.4574,-9.0484 -104.0625,-24.25 -112.2679,-50.7858 -94.1576,-143.8066 -22.2188,-192.9374 295.1841,-201.5971 415.346,-298.6698 513.1563,-438.4063 -23.3681,89.2975 -18.4025,171.474 -225.25,280.8437 -21.192,11.2052 -0.9546,19.098 12.125,16.1563 49.7482,-11.1888 305.6449,-105.8436 247.4687,-410.125 z m 54.1563,118.1875 c -14.1128,0.497 -14.6721,14.6746 -15.75,30.3125 -11.3116,164.1058 -158.5247,233.6155 -262.6563,332.3125 -15.8734,15.0452 -21.3185,21.81 -19.1874,27.2812 2.8588,7.3408 7.8953,8.7517 28.2812,3.0313 98.4533,-27.6269 160.4872,-110.2515 207.0938,-156.5625 -40.8968,70.1582 -59.4421,133.3891 -242.4376,247.4688 21.3505,18.3351 112.9016,-1.7594 198.4063,-105.375 -31.2654,58.8465 -69.5231,111.5443 -132.75,182.1562 -22.9448,25.6248 10.5484,29.9468 32.3125,12.125 56.5449,-46.3026 90.3934,-110.0051 122.25,-170.7188 -2.373,-14.7307 -4.3352,-30.1619 -12.5312,-35.1874 25.9142,-33.4709 51.0198,-74.8394 73.125,-125.4376 7.8626,-17.9974 5.0573,-38.0313 -5.0626,-49.4687 34.1209,-52.1912 57.1986,-103.9234 58.5938,-156.5937 0.7028,-26.5341 -15.0294,-34.9927 -28.2812,-35.3438 -0.4839,-0.013 -0.951,-0.016 -1.4063,0 z m 426.53133,31.1875 c -24.7425,-0.4062 -52.5292,12.9822 -68.7813,25.625 -47.8676,37.2372 -63.7216,117.8679 -82.8437,195.7187 -15.1774,61.7908 -44.1074,116.2723 -98.5626,154.2813 -92.90163,64.8441 -201.80343,105.1815 -312.87503,145.7187 -145.2019,52.9936 -258.1126,147.7059 -372.8437,238.5626 -11.4368,9.0569 -22.3009,5.8335 -32.875,1.4374 -99.5432,-41.3838 -227.194102,-10.5868 -200.000002,122.8438 3.1398,15.4056 1.3405,33.7449 -8.5625,57.1562 -9.0488,21.392 -14.0242,29.2717 -21.0938,61.75 14.6522,-2.0158 39.202502,-7.0747 79.656302,-27.4687 64.902,-32.7192 143.6814,-31.2584 234.2813,-1.4375 143.1424,47.1152 246.3003,17.4729 350,-11.4062 -10.7247,-12.1119 -18.7476,-25.4319 -52.8438,-27.1563 -118.0337,48.6918 -232.7506,10.4963 -348.5625,-14.2813 -56.6704,-12.1244 -108.1354,-29.0578 -232.875002,54.2813 27.641802,-34.4044 32.187802,-58.7308 32.875002,-82.8437 2.9992,-105.2365 55.3789,-129.2232 145.7187,-95.7188 52.3722,19.4233 91.7859,-3.6013 127.125,-35.7188 96.7485,-87.9282 201.8626,-161.8268 342.875,-205.7187 94.3667,-29.3728 187.169,-67.8135 262.84383,-124.2813 66.8023,-49.8472 119.8789,-111.2379 137.1562,-188.5624 13.5746,-60.7522 18.3492,-130.1766 51.4063,-175.7188 12.94,-17.8271 22.193,-47.3011 74.2813,-32.875 33.5261,9.2853 22.9088,54.1956 11.4374,80 -22.7267,51.123 -56.3396,88.738 -98.5624,147.1562 -19.0924,26.4156 -34.2335,57.1773 -48.5626,88.5626 105.5705,-100.0179 180.7279,-233.8465 181.4063,-274.2813 0.9561,-56.9899 -23.1774,-75.1647 -51.2187,-75.625 z m 90.5624,33.5 c -25.0987,0.7706 -33.0705,28.2361 -9.5937,35.3125 39.6458,11.9499 32.8304,34.284 10.0937,66.6875 -46.6172,66.4372 -114.0126,126.6645 -169.6874,201 -15.9743,21.3283 8.4081,13.9695 20.6874,1.0313 59.3475,-62.5325 117.7481,-114.6976 174.25,-179.8126 40.1733,-46.297 49.5945,-103.471 -12.125,-122.25 -4.9611,-1.5094 -9.5179,-2.0948 -13.625,-1.9687 z m 92.2813,54.7187 c -18.0935,0.6351 -27.8625,22.8283 -15.5,31.0938 37.8704,25.3201 14.7744,45.6813 1,62.6562 -44.6224,54.9907 -143.0694,115.2443 -220.7187,180.8126 -27.7403,23.4241 -0.2565,19.1138 18.6874,6.0624 74.4518,-51.2935 160.2351,-108.0702 217.1876,-153.0624 39.1873,-30.9579 55.5698,-90.975 19.6874,-119.6876 -7.3679,-5.8957 -14.3125,-8.0866 -20.3437,-7.875 z m 80,67.5313 c -13.4411,0.1989 -25.5005,10.6689 -9.4687,24.875 29.2836,25.9488 26.2127,46.5581 -8.5626,75 -46.2543,37.8304 -141.204,79.4045 -232.875,117.1563 -20.5419,8.4596 -24.1409,14.2633 -30.7187,21.4062 11.9997,-0.1745 16.2852,6.5228 42.875,-3.5625 214.3591,-81.3048 233.6853,-99.9818 267.125,-130 24.3974,-21.9012 27.9837,-64.7486 -13.5625,-100 -4.0782,-3.4603 -9.553,-4.9528 -14.8125,-4.875 z m 73.0625,84.3437 c -4.1152,0.1977 -8.1768,2.0086 -11.8125,5.5313 -9.0143,8.7341 -1.011,17.2897 7.125,28.5625 29.0884,40.3031 32.3376,73.7382 -45.7187,80 -37.9869,3.0474 -70.3395,6.7438 -124.2813,14.2812 -168.8082,23.5881 -225.1489,92.5552 -272.8437,167.1563 -42.001,65.6952 -72.9887,131.8394 -107.1563,194.2813 -40.6957,43.8299 -77.97473,112.4723 -125.71873,104.2812 -14.5366,-2.4939 -28.7395,-4.4035 -32.8438,10 -4.1923,14.7124 5.6388,22.066 20,22.875 89.0896,5.0189 102.43383,-49.9727 148.56253,-81.4375 39.8724,-27.1974 62.019,-28.3339 88.5937,-31.4375 -16.4042,22.1711 -58.443,65.9664 -92.875,101.4375 -6.1525,6.3382 -16.2683,21.5948 -32.8437,25.7187 -34.56763,8.6002 -29.05093,9.8606 -25.71873,17.125 2.1185,4.6186 12.86563,5.4417 28.56243,4.3126 58.247,-4.1895 100.1285,-74.4896 148.5626,-121.4376 64.2121,-62.2417 126.6142,-87.9261 185.7187,-82.875 -28.3551,25.9743 -54.9813,53.3614 -107.125,100 -29.1172,26.0433 -53.6606,40.091 -74.2813,55.7188 -13.8406,10.4895 -35.5813,19.9167 -17.1562,42.875 10.2519,12.7743 27.2324,1.3258 41.4375,-10 87.0768,-69.4268 193.4392,-177.3958 252.8437,-198.5938 37.7971,-13.4876 55.2752,-20.0191 74.2813,-21.4062 -25.093,16.5216 -65.1501,43.9702 -101.4063,75.7188 -33.6602,29.4753 -75.2145,70.0127 -115.7187,107.125 -10.2277,9.3711 -19.316,20.3692 -14.2813,28.5624 8.8709,14.4358 23.122,4.1115 31.4063,-2.8437 49.0153,-41.1517 88.182,-79.4293 127.1563,-110 74.0754,-58.1034 147.449,-117.0957 282.8437,-97.1563 -160.6089,45.4273 -279.8499,169.7376 -414.2813,267.1563 -66.7401,48.3647 -118.3699,92.5242 -223.5624,137.8437 -88.6969,38.2129 -152.76433,21.8273 -203.56263,-55.6874 -86.279,-131.6564 -176.7414,-123.015 -253.5937,-111.4376 -8.7326,1.3156 -25.6669,25.2448 7.875,25 61.8768,-0.4517 123.5469,6.6031 230,145.7188 110.4419,144.3285 278.93063,25.7836 345.71873,-17.1562 101.0451,-64.9646 206.1775,-158.9343 228.5626,-175.7188 145.9463,-109.4316 259.5095,-180.4762 380,-200 38.3851,-6.2198 31.4818,-34.4701 2.6874,-42.1875 -89.5801,-24.0092 -176.4522,-25.0134 -262.6874,5.0625 4.6811,-14.4682 19.8766,-32.8274 -42.875,-17.1562 -48.1662,12.0286 -89.399,29.6397 -132.8438,45.7187 11.039,-12.6559 25.0014,-24.5635 -1.9375,-23.4687 -116.1559,4.7204 -178.3859,33.1374 -220.9063,73.4687 -16.3735,-12.143 -35.6809,-19.5536 -67.1562,-7.1563 25.2381,-64.9852 51.4702,-104.2746 75.7188,-150 52.021,-98.0957 128.2507,-151.4133 234.2812,-161.4062 41.8719,-3.9462 67.2459,-7.1593 142.8438,-21.4375 87.1665,-16.4632 130.7385,-61.2008 55.7187,-138.5625 -4.6613,-4.8067 -10.0216,-7.2229 -15.3125,-6.9688 z M 199.99497,4449.0008 c -18.0727,0.1694 -31.2106,11.9302 -33.3125,29.2812 -2.2437,18.5214 6.2248,29.9853 27.2812,32.8438 19.2421,2.6122 36.9602,-4.9118 41.9063,-25.25 4.2511,-17.4804 9.7638,-21.4262 14.1563,-28.2813 -20.8916,1.362 -33.6154,-8.7477 -50.0313,-8.5937 z m 2.5,21.0624 c 3.2563,-0.03 5.7933,1.9577 9.9375,1.6876 -0.8713,1.3598 -1.9692,2.1574 -2.8125,5.625 -0.9811,4.0345 -4.4955,5.5181 -8.3125,5 -4.177,-0.5671 -5.8513,-2.8259 -5.4062,-6.5 0.4168,-3.4419 3.0086,-5.7789 6.5937,-5.8126 z"
           id="path3102"
           inkscape:connector-curvature="0" />
      </g>
    </g>
  </g>
</svg>
